#Comment line ignore any data following # character 
#Hierarchical Translation and Rotation (.htr) file 
[Header]	
#Header keywords are followed by a single value 
FileType HTR		#Single word string
DataType HTRS		#Translation followed by rotation and scale data
FileVersion 1		#integer
NumSegments 84		#integer
NumFrames 2		#integer
DataFrameRate 30		#integer, data frame rate in this file
EulerRotationOrder ZYX
CalibrationUnits mm
RotationUnits Degrees
GlobalAxisofGravity Y
BoneLengthAxis Y
ScaleFactor 1.00
[SegmentNames&Hierarchy]
#CHILD	PARENT
MASTER GLOBAL
root MASTER
chest root
L_mid_tent01 root
R_mid_tent01 root
spine01 root
Bip01_Neck chest
L_humerus chest
R_humerus chest
weapon_bone chest
Bip01_Head Bip01_Neck
eye_left_bone Bip01_Head
eye_right_bone Bip01_Head
L_forearm L_humerus
L_front_hand L_forearm
L_weapon_bone L_forearm
L_front_hand01_01 L_front_hand
L_front_hand02_01 L_front_hand
L_front_hand03_01 L_front_hand
L_front_hand01_02 L_front_hand01_01
L_front_hand02_02 L_front_hand02_01
L_front_hand03_02 L_front_hand03_01
R_forearm R_humerus
R_front_hand R_forearm
R_weapon_bone R_forearm
R_front_hand01_01 R_front_hand
R_front_hand02_01 R_front_hand
R_front_hand03_01 R_front_hand
R_front_hand01_02 R_front_hand01_01
R_front_hand02_02 R_front_hand02_01
R_front_hand03_02 R_front_hand03_01
null_rope01_connect L_mid_tent01
Rope1_Seg01 null_rope01_connect
Rope1_Seg02 Rope1_Seg01
Rope1_Seg03 Rope1_Seg02
Rope1_Seg04 Rope1_Seg03
Rope1_Seg05 Rope1_Seg04
Rope1_Seg06 Rope1_Seg05
Rope1_Seg07 Rope1_Seg06
Rope1_Seg09 Rope1_Seg07
L_mid_hand01 Rope1_Seg09
L_mid_hand02 Rope1_Seg09
L_mid_hand03 Rope1_Seg09
null_rope02_connect R_mid_tent01
Rope2_Seg01 null_rope02_connect
Rope2_Seg02 Rope2_Seg01
Rope2_Seg03 Rope2_Seg02
Rope2_Seg04 Rope2_Seg03
Rope2_Seg05 Rope2_Seg04
Rope2_Seg06 Rope2_Seg05
Rope2_Seg07 Rope2_Seg06
Rope2_Seg09 Rope2_Seg07
R_mid_hand01 Rope2_Seg09
R_mid_hand02 Rope2_Seg09
R_mid_hand03 Rope2_Seg09
spine02 spine01
spine03 spine02
pelvis spine03
null_rope03_connect pelvis
null_rope04_connect pelvis
Rope3_Seg01 null_rope03_connect
Rope3_Seg02 Rope3_Seg01
Rope3_Seg03 Rope3_Seg02
Rope3_Seg04 Rope3_Seg03
Rope3_Seg05 Rope3_Seg04
Rope3_Seg06 Rope3_Seg05
Rope3_Seg07 Rope3_Seg06
Rope3_Seg08 Rope3_Seg07
Rope3_Seg09 Rope3_Seg08
R_rear_hand01 Rope3_Seg09
R_rear_hand02 Rope3_Seg09
R_rear_hand03 Rope3_Seg09
Rope4_Seg01 null_rope04_connect
Rope4_Seg02 Rope4_Seg01
Rope4_Seg03 Rope4_Seg02
Rope4_Seg04 Rope4_Seg03
Rope4_Seg05 Rope4_Seg04
Rope4_Seg06 Rope4_Seg05
Rope4_Seg07 Rope4_Seg06
Rope4_Seg08 Rope4_Seg07
Rope4_Seg09 Rope4_Seg08
L_rear_hand01 Rope4_Seg09
L_rear_hand02 Rope4_Seg09
L_rear_hand03 Rope4_Seg09
[BasePosition]
#SegmentName Tx, Ty, Tz, Rx, Ry, Rz, BoneLength
MASTER 0.000000 0.000000 0.000000 -90.000000 0.000000 0.000000 10.000000 
root 0.000000 0.000000 0.000000 0.000000 0.000000 0.000000 10.000000 
chest 0.000000 0.000000 0.000000 0.000000 0.000000 0.000000 10.000000 
L_mid_tent01 0.000000 0.000000 0.000000 0.000000 0.000000 0.000000 10.000000 
R_mid_tent01 0.000000 0.000000 0.000000 0.000000 0.000000 0.000000 10.000000 
spine01 0.000000 0.000000 0.000000 0.000000 0.000000 0.000000 10.000000 
Bip01_Neck 0.000000 0.000000 0.000000 0.000000 0.000000 0.000000 10.000000 
L_humerus 0.000000 0.000000 0.000000 0.000000 0.000000 0.000000 10.000000 
R_humerus 0.000000 0.000000 0.000000 0.000000 0.000000 0.000000 10.000000 
weapon_bone 0.000000 0.000000 0.000000 0.000000 0.000000 0.000000 10.000000 
Bip01_Head 0.000000 0.000000 0.000000 0.000000 0.000000 0.000000 10.000000 
eye_left_bone 0.000000 0.000000 0.000000 0.000000 0.000000 0.000000 10.000000 
eye_right_bone 0.000000 0.000000 0.000000 0.000000 0.000000 0.000000 10.000000 
L_forearm 0.000000 0.000000 0.000000 0.000000 0.000000 0.000000 10.000000 
L_front_hand 0.000000 0.000000 0.000000 0.000000 0.000000 0.000000 10.000000 
L_weapon_bone 0.000000 0.000000 0.000000 0.000000 0.000000 0.000000 10.000000 
L_front_hand01_01 0.000000 0.000000 0.000000 0.000000 0.000000 0.000000 10.000000 
L_front_hand02_01 0.000000 0.000000 0.000000 0.000000 0.000000 0.000000 10.000000 
L_front_hand03_01 0.000000 0.000000 0.000000 0.000000 0.000000 0.000000 10.000000 
L_front_hand01_02 0.000000 0.000000 0.000000 0.000000 0.000000 0.000000 10.000000 
L_front_hand02_02 0.000000 0.000000 0.000000 0.000000 0.000000 0.000000 10.000000 
L_front_hand03_02 0.000000 0.000000 0.000000 0.000000 0.000000 0.000000 10.000000 
R_forearm 0.000000 0.000000 0.000000 0.000000 0.000000 0.000000 10.000000 
R_front_hand 0.000000 0.000000 0.000000 0.000000 0.000000 0.000000 10.000000 
R_weapon_bone 0.000000 0.000000 0.000000 0.000000 0.000000 0.000000 10.000000 
R_front_hand01_01 0.000000 0.000000 0.000000 0.000000 0.000000 0.000000 10.000000 
R_front_hand02_01 0.000000 0.000000 0.000000 0.000000 0.000000 0.000000 10.000000 
R_front_hand03_01 0.000000 0.000000 0.000000 0.000000 0.000000 0.000000 10.000000 
R_front_hand01_02 0.000000 0.000000 0.000000 0.000000 0.000000 0.000000 10.000000 
R_front_hand02_02 0.000000 0.000000 0.000000 0.000000 0.000000 0.000000 10.000000 
R_front_hand03_02 0.000000 0.000000 0.000000 0.000000 0.000000 0.000000 10.000000 
null_rope01_connect 0.000000 0.000000 0.000000 0.000000 0.000000 0.000000 10.000000 
Rope1_Seg01 0.000000 0.000000 0.000000 0.000000 0.000000 0.000000 10.000000 
Rope1_Seg02 0.000000 0.000000 0.000000 0.000000 0.000000 0.000000 10.000000 
Rope1_Seg03 0.000000 0.000000 0.000000 0.000000 0.000000 0.000000 10.000000 
Rope1_Seg04 0.000000 0.000000 0.000000 0.000000 0.000000 0.000000 10.000000 
Rope1_Seg05 0.000000 0.000000 0.000000 0.000000 0.000000 0.000000 10.000000 
Rope1_Seg06 0.000000 0.000000 0.000000 0.000000 0.000000 0.000000 10.000000 
Rope1_Seg07 0.000000 0.000000 0.000000 0.000000 0.000000 0.000000 10.000000 
Rope1_Seg09 0.000000 0.000000 0.000000 0.000000 0.000000 0.000000 10.000000 
L_mid_hand01 0.000000 0.000000 0.000000 0.000000 0.000000 0.000000 10.000000 
L_mid_hand02 0.000000 0.000000 0.000000 0.000000 0.000000 0.000000 10.000000 
L_mid_hand03 0.000000 0.000000 0.000000 0.000000 0.000000 0.000000 10.000000 
null_rope02_connect 0.000000 0.000000 0.000000 0.000000 0.000000 0.000000 10.000000 
Rope2_Seg01 0.000000 0.000000 0.000000 0.000000 0.000000 0.000000 10.000000 
Rope2_Seg02 0.000000 0.000000 0.000000 0.000000 0.000000 0.000000 10.000000 
Rope2_Seg03 0.000000 0.000000 0.000000 0.000000 0.000000 0.000000 10.000000 
Rope2_Seg04 0.000000 0.000000 0.000000 0.000000 0.000000 0.000000 10.000000 
Rope2_Seg05 0.000000 0.000000 0.000000 0.000000 0.000000 0.000000 10.000000 
Rope2_Seg06 0.000000 0.000000 0.000000 0.000000 0.000000 0.000000 10.000000 
Rope2_Seg07 0.000000 0.000000 0.000000 0.000000 0.000000 0.000000 10.000000 
Rope2_Seg09 0.000000 0.000000 0.000000 0.000000 0.000000 0.000000 10.000000 
R_mid_hand01 0.000000 0.000000 0.000000 0.000000 0.000000 0.000000 10.000000 
R_mid_hand02 0.000000 0.000000 0.000000 0.000000 0.000000 0.000000 10.000000 
R_mid_hand03 0.000000 0.000000 0.000000 0.000000 0.000000 0.000000 10.000000 
spine02 0.000000 0.000000 0.000000 0.000000 0.000000 0.000000 10.000000 
spine03 0.000000 0.000000 0.000000 0.000000 0.000000 0.000000 10.000000 
pelvis 0.000000 0.000000 0.000000 0.000000 0.000000 0.000000 10.000000 
null_rope03_connect 0.000000 0.000000 0.000000 0.000000 0.000000 0.000000 10.000000 
null_rope04_connect 0.000000 0.000000 0.000000 0.000000 0.000000 0.000000 10.000000 
Rope3_Seg01 0.000000 0.000000 0.000000 0.000000 0.000000 0.000000 10.000000 
Rope3_Seg02 0.000000 0.000000 0.000000 0.000000 0.000000 0.000000 10.000000 
Rope3_Seg03 0.000000 0.000000 0.000000 0.000000 0.000000 0.000000 10.000000 
Rope3_Seg04 0.000000 0.000000 0.000000 0.000000 0.000000 0.000000 10.000000 
Rope3_Seg05 0.000000 0.000000 0.000000 0.000000 0.000000 0.000000 10.000000 
Rope3_Seg06 0.000000 0.000000 0.000000 0.000000 0.000000 0.000000 10.000000 
Rope3_Seg07 0.000000 0.000000 0.000000 0.000000 0.000000 0.000000 10.000000 
Rope3_Seg08 0.000000 0.000000 0.000000 0.000000 0.000000 0.000000 10.000000 
Rope3_Seg09 0.000000 0.000000 0.000000 0.000000 0.000000 0.000000 10.000000 
R_rear_hand01 0.000000 0.000000 0.000000 0.000000 0.000000 0.000000 10.000000 
R_rear_hand02 0.000000 0.000000 0.000000 0.000000 0.000000 0.000000 10.000000 
R_rear_hand03 0.000000 0.000000 0.000000 0.000000 0.000000 0.000000 10.000000 
Rope4_Seg01 0.000000 0.000000 0.000000 0.000000 0.000000 0.000000 10.000000 
Rope4_Seg02 0.000000 0.000000 0.000000 0.000000 0.000000 0.000000 10.000000 
Rope4_Seg03 0.000000 0.000000 0.000000 0.000000 0.000000 0.000000 10.000000 
Rope4_Seg04 0.000000 0.000000 0.000000 0.000000 0.000000 0.000000 10.000000 
Rope4_Seg05 0.000000 0.000000 0.000000 0.000000 0.000000 0.000000 10.000000 
Rope4_Seg06 0.000000 0.000000 0.000000 0.000000 0.000000 0.000000 10.000000 
Rope4_Seg07 0.000000 0.000000 0.000000 0.000000 0.000000 0.000000 10.000000 
Rope4_Seg08 0.000000 0.000000 0.000000 0.000000 0.000000 0.000000 10.000000 
Rope4_Seg09 0.000000 0.000000 0.000000 0.000000 0.000000 0.000000 10.000000 
L_rear_hand01 0.000000 0.000000 0.000000 0.000000 0.000000 0.000000 10.000000 
L_rear_hand02 0.000000 0.000000 0.000000 0.000000 0.000000 0.000000 10.000000 
L_rear_hand03 0.000000 0.000000 0.000000 0.000000 0.000000 0.000000 10.000000 
#Beginning of Data. Separated by tabs
#Fr	Tx	Ty	Tz	Rx	Ry	Rz	SF
[MASTER]
29 -2471.543457 -4637.851074 662.461670 0.000000 -0.002347 -90.000000 5296.890625
30 -2475.001709 -4664.104004 662.461670 0.000000 -0.002347 -90.000000 5321.499512
[root]
29 -85.671890 -28.325684 1004.091614 -113.217552 -14.865634 -166.987198 1008.137878
30 -85.671883 -48.148376 1004.091614 -113.217552 -14.865634 -166.987198 1008.889465
[chest]
29 -84.512650 -34.090519 0.000000 -34.776783 -28.068703 -176.313614 91.129311
30 -84.512650 -34.090519 0.000000 -39.022167 -18.408894 178.205185 91.129311
[L_mid_tent01]
29 27.299292 22.179253 -249.918716 -14.722099 13.337741 -53.040974 252.381729
30 27.299299 22.179256 -249.918716 -11.284392 11.426397 -46.951385 252.381729
[R_mid_tent01]
29 23.228794 24.509907 226.238495 163.582672 -6.846627 77.461395 228.744751
30 23.228794 24.509907 226.238495 163.314392 -13.046830 77.092720 228.744751
[spine01]
29 -0.361383 -0.195265 0.000000 0.001954 0.001301 22.692133 0.410763
30 -0.361383 -0.195265 0.000000 0.001953 0.001301 22.656824 0.410763
[Bip01_Neck]
29 165.484543 71.581718 0.000119 176.643677 -1.657967 43.431911 180.302734
30 165.484543 71.581718 0.000119 176.643677 -1.657967 43.431911 180.302734
[L_humerus]
29 -13.983130 -135.272980 -120.471481 173.411957 -3.356327 -92.945755 181.680161
30 -13.983130 -135.272980 -120.471481 172.083557 0.708406 -94.955688 181.680161
[R_humerus]
29 -13.983309 -135.273102 125.287651 -176.998413 6.374082 -85.208366 184.909012
30 -13.983309 -135.273102 125.287651 -177.014343 2.678857 -85.399727 184.909012
[weapon_bone]
29 235.964890 -300.705902 0.000000 0.000000 -89.951546 -128.212341 382.234833
30 235.964890 -300.705902 0.000000 0.000000 -89.951546 -128.212341 382.234833
[Bip01_Head]
29 213.385818 185.878906 9.668212 18.223387 6.152122 -43.833614 283.157104
30 213.391739 185.862457 9.880799 20.453201 6.149213 -43.834602 283.158112
[eye_left_bone]
29 -24.626970 125.451866 -64.772606 0.000000 -90.000000 -99.840431 143.318359
30 -24.626970 125.451866 -64.772606 0.000000 -90.000000 -99.840431 143.318359
[eye_right_bone]
29 -24.626970 125.451866 64.327362 0.000000 -89.965736 80.156380 143.117676
30 -24.626970 125.451866 64.327362 0.000000 -89.965736 80.156380 143.117676
[L_forearm]
29 322.776093 0.000000 -0.000119 0.000423 -0.002309 -110.751427 322.776093
30 322.776093 0.000000 -0.000119 0.000421 -0.002309 -110.675270 322.776093
[L_front_hand]
29 241.149185 -0.042021 -3.300071 -178.667953 -1.835447 -27.422350 241.171753
30 241.149185 -0.042021 -3.300071 -178.667953 -1.835447 -27.422350 241.171753
[L_weapon_bone]
29 156.183838 0.000000 0.000000 0.000014 0.000007 0.000001 156.183838
30 156.183838 0.000000 0.000000 0.000014 0.000007 0.000001 156.183838
[L_front_hand01_01]
29 86.095154 20.947098 -0.655860 -0.366594 -0.477154 75.385574 88.609184
30 86.095154 20.947098 -0.655860 -0.366594 -0.477154 75.385574 88.609184
[L_front_hand02_01]
29 86.935165 -11.437475 24.513514 154.399796 -59.883835 -61.369587 91.046425
30 86.935165 -11.437475 24.513514 154.399796 -59.883820 -61.369564 91.046425
[L_front_hand03_01]
29 86.637497 -14.123976 -20.424902 -153.913849 58.118130 -62.702866 90.126129
30 86.637497 -14.123976 -20.424902 -153.913849 58.118107 -62.702850 90.126129
[L_front_hand01_02]
29 71.020905 -0.000179 0.000030 0.000334 -0.002323 -106.369392 71.020905
30 71.020905 -0.000179 0.000030 0.000334 -0.002323 -106.370071 71.020905
[L_front_hand02_02]
29 71.020927 -0.000119 0.000060 0.000334 -0.002323 -106.369392 71.020927
30 71.020927 -0.000119 0.000060 0.000334 -0.002323 -106.370071 71.020927
[L_front_hand03_02]
29 71.020905 -0.000060 0.000060 0.000334 -0.002323 -106.369392 71.020905
30 71.020905 -0.000060 0.000060 0.000334 -0.002323 -106.370071 71.020905
[R_forearm]
29 322.776428 -0.000060 0.000030 0.201324 0.067527 -109.408707 322.776428
30 322.776428 -0.000060 0.000030 0.201368 0.067395 -109.333565 322.776428
[R_front_hand]
29 238.847015 -0.006795 2.210259 -2.635298 -10.645461 -26.312506 238.857239
30 238.847015 -0.006795 2.210259 -2.635298 -10.645461 -26.312506 238.857239
[R_weapon_bone]
29 155.664093 0.002503 -0.000030 0.003487 0.001180 -90.988930 155.664078
30 155.664093 0.002503 -0.000030 0.003487 0.001180 -90.988930 155.664078
[R_front_hand01_01]
29 87.624611 14.231146 22.918642 -154.633484 -59.950619 61.746037 91.683487
30 87.624611 14.231146 22.918642 -154.633499 -59.950619 61.746044 91.683487
[R_front_hand02_01]
29 89.356956 14.367283 -19.491137 154.602661 58.302849 63.744389 92.579636
30 89.356956 14.367283 -19.491137 154.602661 58.302849 63.744389 92.579636
[R_front_hand03_01]
29 87.286232 -22.307278 -0.143439 0.162155 -0.423168 -75.767921 90.091743
30 87.286232 -22.307278 -0.143439 0.162155 -0.423168 -75.767921 90.091743
[R_front_hand01_02]
29 71.020905 0.000060 0.000119 0.002323 -0.000334 106.381714 71.020905
30 71.020905 0.000060 0.000119 0.002323 -0.000334 106.381714 71.020905
[R_front_hand02_02]
29 71.020844 -0.000030 -0.000119 0.002323 -0.000334 106.381714 71.020836
30 71.020844 -0.000030 -0.000119 0.002323 -0.000334 106.381714 71.020836
[R_front_hand03_02]
29 71.020905 0.000000 0.000030 0.002323 -0.000334 106.381714 71.020905
30 71.020905 0.000000 0.000030 0.002323 -0.000334 106.381714 71.020905
[null_rope01_connect]
29 328.732483 0.000000 -0.000238 140.253464 71.065308 122.200035 328.732483
30 328.732483 0.000000 -0.000238 152.073776 70.969757 128.012039 328.732483
[Rope1_Seg01]
29 0.000000 0.000000 0.000000 78.617943 -85.058777 28.528332 0.000000
30 0.000000 0.000000 0.000000 -77.688057 -72.015251 -166.004776 0.000000
[Rope1_Seg02]
29 139.999863 -0.000179 0.000000 3.452823 -2.099427 13.290634 139.999863
30 139.999863 -0.000179 0.000000 4.292093 -2.046271 9.693129 139.999863
[Rope1_Seg03]
29 139.999924 0.000060 -0.000060 11.873083 -1.983976 21.660175 139.999924
30 139.999924 0.000060 -0.000060 9.498955 -1.688762 12.898141 139.999924
[Rope1_Seg04]
29 139.999924 -0.000060 -0.000119 39.615967 4.063706 29.331575 139.999924
30 139.999924 -0.000060 -0.000119 24.364206 -0.336767 17.365929 139.999924
[Rope1_Seg05]
29 139.999832 0.000119 -0.000060 28.314358 12.410966 12.370133 139.999832
30 139.999832 0.000119 -0.000060 32.661369 6.480499 12.425282 139.999832
[Rope1_Seg06]
29 139.999954 0.000119 -0.000060 7.188818 4.373550 2.701667 139.999954
30 139.999954 0.000119 -0.000060 9.539392 6.138947 0.414982 139.999954
[Rope1_Seg07]
29 139.999985 0.000060 0.000000 1.879133 -0.126391 2.077160 139.999985
30 139.999985 0.000060 0.000000 4.112936 4.078058 -0.896728 139.999985
[Rope1_Seg09]
29 121.602913 0.000119 -0.000089 -89.793175 -1.359789 0.847147 121.602913
30 121.602913 0.000119 -0.000089 -89.793175 -1.359789 0.847147 121.602913
[L_mid_hand01]
29 103.859421 1.038730 8.195221 130.544373 -67.584534 -38.866943 104.187431
30 103.859421 1.038730 8.195221 130.544388 -67.584534 -38.866955 104.187431
[L_mid_hand02]
29 105.572853 -4.139662 -10.864139 -168.923172 43.409309 -73.498894 106.211075
30 105.572853 -4.139662 -10.864139 -168.923172 43.409309 -73.498894 106.211075
[L_mid_hand03]
29 104.641464 17.579376 -3.913581 -6.012626 17.808172 74.893661 106.179977
30 104.641464 17.579376 -3.913581 -6.012625 17.808172 74.893669 106.179977
[null_rope02_connect]
29 328.732849 0.000179 -0.000119 45.511326 -55.657005 -73.060905 328.732849
30 328.732849 0.000179 -0.000119 55.887951 -56.503315 -83.791870 328.732849
[Rope2_Seg01]
29 -0.000055 -0.000084 0.000000 30.182911 56.029655 -36.498936 0.000100
30 -0.000054 -0.000080 0.000000 31.688797 54.259586 -35.020824 0.000097
[Rope2_Seg02]
29 139.999741 -0.000060 -0.000119 -2.378936 -2.468347 -10.540767 139.999756
30 139.999741 -0.000060 -0.000119 -2.698725 -2.643502 -10.401559 139.999756
[Rope2_Seg03]
29 140.000107 0.000030 0.000000 -2.755468 -3.070472 -19.438076 140.000107
30 140.000107 0.000030 0.000000 -3.333564 -3.124898 -18.997105 140.000107
[Rope2_Seg04]
29 139.999802 0.000000 -0.000060 -0.370674 -1.827597 -28.524948 139.999802
30 139.999802 0.000000 -0.000060 -1.318907 -2.158978 -27.479305 139.999802
[Rope2_Seg05]
29 139.999985 -0.000060 0.000119 2.928995 -9.221543 -20.687803 139.999985
30 139.999985 -0.000060 0.000119 2.454923 -9.859794 -23.467484 139.999985
[Rope2_Seg06]
29 139.999893 -0.000030 -0.000119 1.573534 -8.583042 -14.278679 139.999893
30 139.999893 -0.000030 -0.000119 1.234558 -7.572703 -15.732646 139.999893
[Rope2_Seg07]
29 139.999893 0.000060 -0.000060 0.379765 -4.419665 -8.752191 139.999893
30 139.999893 0.000060 -0.000060 0.317163 -3.684923 -8.710999 139.999893
[Rope2_Seg09]
29 121.338966 0.000089 -0.000060 33.793236 -1.359788 -0.847141 121.338966
30 121.338966 0.000089 -0.000060 33.793236 -1.359788 -0.847141 121.338966
[R_mid_hand01]
29 104.680779 11.144459 -10.335981 -16.212063 45.237247 70.462852 105.778534
30 104.680779 11.144459 -10.335981 -16.212063 45.237247 70.462852 105.778534
[R_mid_hand02]
29 104.070427 2.443552 8.231699 49.067368 -67.749771 39.286453 104.424065
30 104.070427 2.443552 8.231699 49.067387 -67.749794 39.286457 104.424065
[R_mid_hand03]
29 106.028137 -11.221827 -5.996406 -177.101105 15.551026 -76.585571 106.788818
30 106.028137 -11.221827 -5.996406 -177.101105 15.551029 -76.585594 106.788818
[spine02]
29 129.756927 0.001550 0.000119 0.494374 -4.029558 -14.844076 129.756927
30 129.756927 0.001550 0.000119 0.486908 -4.030492 -14.736521 129.756927
[spine03]
29 78.614021 0.081739 -4.898997 1.977650 3.792867 17.671127 78.766556
30 78.614021 0.081739 -4.898997 1.973686 3.795269 17.605928 78.766556
[pelvis]
29 169.435242 0.051022 0.000000 -57.408150 -0.188153 -10.720376 169.435257
30 169.435242 0.051022 0.000000 -57.209499 0.250471 -9.908998 169.435257
[null_rope03_connect]
29 -1.257226 -2.466202 137.391083 -179.653900 11.477916 97.521980 137.418976
30 -1.257226 -2.466202 137.391083 -179.175674 11.609365 96.807747 137.418976
[null_rope04_connect]
29 -1.259640 -2.480268 -137.844437 -179.653900 11.477916 97.521980 137.872513
30 -1.259640 -2.480268 -137.844437 -179.175674 11.609365 96.807747 137.872513
[Rope3_Seg01]
29 0.000000 0.000000 0.000000 -122.746544 -62.104717 83.359451 0.000000
30 0.000000 0.000000 0.000000 -121.262360 -61.971169 81.652733 0.000000
[Rope3_Seg02]
29 139.999924 -0.000119 0.000060 0.001212 -9.657845 11.481029 139.999924
30 139.999924 -0.000119 0.000060 -0.079817 -10.557978 10.892656 139.999924
[Rope3_Seg03]
29 139.999924 -0.000119 0.000119 -0.989868 -6.377624 12.031488 139.999924
30 139.999924 -0.000119 0.000119 -0.929439 -7.436010 11.530206 139.999924
[Rope3_Seg04]
29 139.999924 0.000119 0.000000 -1.298603 -1.813470 10.270438 139.999924
30 139.999924 0.000119 0.000000 -1.237358 -2.700635 9.982556 139.999924
[Rope3_Seg05]
29 139.999924 -0.000238 0.000060 -1.068095 -8.635449 -0.349209 139.999924
30 139.999924 -0.000238 0.000060 -0.815994 -8.654757 -0.402827 139.999924
[Rope3_Seg06]
29 139.999893 -0.000119 -0.000060 12.272372 -36.890270 -22.047676 139.999893
30 139.999893 -0.000119 -0.000060 11.610268 -34.993076 -20.768421 139.999893
[Rope3_Seg07]
29 139.999771 0.000060 -0.000119 36.326935 -37.743324 -16.037573 139.999771
30 139.999771 0.000060 -0.000119 36.225262 -37.570789 -15.940517 139.999771
[Rope3_Seg08]
29 139.999985 -0.000060 0.000000 20.453648 -13.068991 3.037169 139.999985
30 139.999985 -0.000060 0.000000 21.559206 -13.732679 3.182135 139.999985
[Rope3_Seg09]
29 90.185997 -0.000179 -0.000060 89.793228 -1.359877 -0.847183 90.185997
30 90.185997 -0.000179 -0.000060 89.793228 -1.359877 -0.847183 90.185997
[R_rear_hand01]
29 103.366196 -6.073594 -10.757982 -177.714203 24.565960 -73.910950 104.101845
30 103.366196 -6.073594 -10.757982 -177.714188 24.565966 -73.910950 104.101845
[R_rear_hand02]
29 100.509819 12.039542 -7.992327 -12.874829 36.868488 72.167213 101.543350
30 100.509819 12.039542 -7.992327 -12.874829 36.868488 72.167213 101.543350
[R_rear_hand03]
29 101.539970 5.215704 5.435467 71.484581 -71.816628 21.513813 101.819031
30 101.539970 5.215704 5.435467 71.484627 -71.816643 21.513803 101.819031
[Rope4_Seg01]
29 0.000010 0.000017 -0.000067 54.459270 -12.897088 42.744694 0.000070
30 0.000010 0.000016 -0.000064 55.017632 -13.539481 41.866562 0.000067
[Rope4_Seg02]
29 139.999985 0.000060 0.000119 17.270697 -3.986778 38.996082 139.999985
30 139.999985 0.000060 0.000119 17.623499 -3.025630 38.636662 139.999985
[Rope4_Seg03]
29 139.999924 0.000000 -0.000238 4.921421 7.135437 55.078812 139.999924
30 139.999924 0.000000 -0.000238 5.093313 9.258141 58.134167 139.999924
[Rope4_Seg04]
29 139.999985 0.000000 0.000119 -4.303416 5.439392 16.864887 139.999985
30 139.999985 0.000000 0.000119 -5.136722 5.252004 16.632065 139.999985
[Rope4_Seg05]
29 139.999802 -0.000060 -0.000119 -7.295432 8.840442 17.197832 139.999802
30 139.999802 -0.000060 -0.000119 -7.460405 7.398684 15.497916 139.999802
[Rope4_Seg06]
29 139.999924 0.000000 0.000060 -12.982856 5.427815 15.663356 139.999924
30 139.999924 0.000000 0.000060 -12.139648 4.495109 14.322396 139.999924
[Rope4_Seg07]
29 139.999802 0.000000 0.000000 -10.661727 0.413583 8.828439 139.999802
30 139.999802 0.000000 0.000000 -10.106892 0.291559 8.498713 139.999802
[Rope4_Seg08]
29 139.999924 0.000000 0.000119 -8.471793 -0.696921 4.974442 139.999924
30 139.999924 0.000000 0.000119 -8.228201 -0.702227 4.908051 139.999924
[Rope4_Seg09]
29 90.185791 0.000060 0.000060 -135.617828 2.228885 0.850567 90.185791
30 90.185791 0.000060 0.000060 -135.617828 2.228885 0.850567 90.185791
[L_rear_hand01]
29 101.696655 -8.392275 -7.654577 -12.874826 -36.868481 107.832756 102.329041
30 101.696655 -8.392275 -7.654577 -12.874829 -36.868488 107.832764 102.329041
[L_rear_hand02]
29 102.726799 -1.568258 5.773216 71.484589 71.816643 158.486160 102.900848
30 102.726799 -1.568258 5.773216 71.484581 71.816628 158.486160 102.900848
[L_rear_hand03]
29 104.552910 9.721220 -10.420293 -177.714203 -24.565960 -106.089035 105.519653
30 104.552910 9.721220 -10.420293 -177.714203 -24.565966 -106.089035 105.519653
